<?xml version="1.0" encoding="utf-8"?>
<!-- Generator: Adobe Illustrator 15.1.0, SVG Export Plug-In . SVG Version: 6.00 Build 0)  -->
<!DOCTYPE svg PUBLIC "-//W3C//DTD SVG 1.1//EN" "http://www.w3.org/Graphics/SVG/1.1/DTD/svg11.dtd">
<svg version="1.1" id="Layer_1" xmlns="http://www.w3.org/2000/svg" xmlns:xlink="http://www.w3.org/1999/xlink" x="0px" y="0px"
	 width="1024px" height="768px" viewBox="0 0 1024 768" enable-background="new 0 0 1024 768" xml:space="preserve">
<line fill="none" stroke="#005295" stroke-width="0.5" stroke-miterlimit="10" x1="-587" y1="162.5" x2="1858" y2="162.5"/>
<line fill="none" stroke="#005295" stroke-width="0.5" stroke-miterlimit="10" x1="-587" y1="166.5" x2="1858" y2="166.5"/>
<line fill="none" stroke="#005295" stroke-width="0.5" stroke-miterlimit="10" x1="-587" y1="170.5" x2="1858" y2="170.5"/>
<line fill="none" stroke="#005295" stroke-width="0.5" stroke-miterlimit="10" x1="-587" y1="174.5" x2="1858" y2="174.5"/>
<line fill="none" stroke="#005295" stroke-width="0.5" stroke-miterlimit="10" x1="-587" y1="178.5" x2="1858" y2="178.5"/>
<line fill="none" stroke="#005295" stroke-width="0.5" stroke-miterlimit="10" x1="-587" y1="182.5" x2="1858" y2="182.5"/>
<line fill="none" stroke="#005295" stroke-width="0.5" stroke-miterlimit="10" x1="-587" y1="186.5" x2="1858" y2="186.5"/>
<line fill="none" stroke="#005295" stroke-width="0.5" stroke-miterlimit="10" x1="-587" y1="190.5" x2="1858" y2="190.5"/>
<line fill="none" stroke="#005295" stroke-width="0.5" stroke-miterlimit="10" x1="-587" y1="194.5" x2="1858" y2="194.5"/>
<line fill="none" stroke="#005295" stroke-width="0.5" stroke-miterlimit="10" x1="-587" y1="198.5" x2="1858" y2="198.5"/>
<line fill="none" stroke="#005295" stroke-width="0.5" stroke-miterlimit="10" x1="-587" y1="202.5" x2="1858" y2="202.5"/>
<line fill="none" stroke="#005295" stroke-width="0.5" stroke-miterlimit="10" x1="-587" y1="206.5" x2="1858" y2="206.5"/>
<line fill="none" stroke="#005295" stroke-width="0.5" stroke-miterlimit="10" x1="-587" y1="210.5" x2="1858" y2="210.5"/>
<line fill="none" stroke="#005295" stroke-width="0.5" stroke-miterlimit="10" x1="-587" y1="214.5" x2="1858" y2="214.5"/>
<line fill="none" stroke="#005295" stroke-width="0.5" stroke-miterlimit="10" x1="-587" y1="218.5" x2="1858" y2="218.5"/>
<path fill="none" stroke="#005295" stroke-width="0.5" stroke-miterlimit="10" d="M-589,222.5H810.33c12,0,12-6.344,12.688-6.344
	s0.688,6.344,12.688,6.344h141.229c12,0,12-6.355,12.712-6.355c0.711,0,0.711,6.355,12.711,6.355H1858"/>
<path fill="none" stroke="#005295" stroke-width="0.5" stroke-miterlimit="10" d="M-589,226.5H38.334c12,0,12-12,24-12h144.022
	c12,0,12,12,24,12h17.722c12,0,12-12,24-12h156.562c12,0,12,12,24,12h20.685c12,0,12-11.358,22.718-11.358
	c10.717,0,10.717,11.358,22.717,11.358h146.799c12,0,12-10.104,20.207-10.104c8.208,0,8.208,10.104,20.208,10.104h29.989
	c12,0,12-10.104,20.207-10.104s8.207,10.104,20.207,10.104h28.035c12,0,12-8.5,16.999-8.5s4.999,8.5,16.999,8.5h135.822
	c12,0,12-8.512,17.022-8.512c5.023,0,5.023,8.512,17.023,8.512H1858"/>
<path fill="none" stroke="#005295" stroke-width="0.5" stroke-miterlimit="10" d="M-589,230.5H38.334c12,0,12-12,24-12h144.022
	c12,0,12,12,24,12h17.722c12,0,12-12,24-12h156.562c12,0,12,12,24,12h20.685c12,0,12-12,24-12h0.36c12,0,12,12,24,12h143.873
	c12,0,12-10.104,20.207-10.104c8.208,0,8.208,10.104,20.208,10.104h29.989c12,0,12-10.104,20.207-10.104s8.207,10.104,20.207,10.104
	h22.116c12,0,12-10.655,21.311-10.655c9.31,0,9.31,10.655,21.31,10.655h130.416c12,0,12-10.667,21.334-10.667
	s9.334,10.667,21.334,10.667H1858"/>
<path fill="none" stroke="#005295" stroke-width="0.5" stroke-miterlimit="10" d="M-589,234.5H38.334c12,0,12-12,24-12h144.022
	c12,0,12,12,24,12h17.722c12,0,12-12,24-12h156.562c12,0,12,12,24,12h20.685c12,0,12-12,24-12h3.288c12,0,12,12,24,12h140.945
	c12,0,12-10.104,20.207-10.104c8.208,0,8.208,10.104,20.208,10.104h29.989c12,0,12-10.104,20.207-10.104s8.207,10.104,20.207,10.104
	h23.626c12,0,12-10.953,21.907-10.953c9.906,0,9.906,10.953,21.906,10.953h125.01c12,0,12-10.953,21.906-10.953
	s9.906,10.953,21.906,10.953H1858"/>
<path fill="none" stroke="#005295" stroke-width="0.5" stroke-miterlimit="10" d="M-589,238.5H38.334c12,0,12-12,24-12h144.022
	c12,0,12,12,24,12h17.722c12,0,12-12,24-12h156.562c12,0,12,12,24,12h20.685c12,0,12-12,24-12h6.214c12,0,12,12,24,12h138.02
	c12,0,12-10.104,20.207-10.104c8.208,0,8.208,10.104,20.208,10.104h29.989c12,0,12-10.104,20.207-10.104s8.207,10.104,20.207,10.104
	h26.329c12,0,12-10.953,21.907-10.953s9.907,10.953,21.907,10.953h119.603c12,0,12-10.953,21.906-10.953s9.906,10.953,21.906,10.953
	H1858"/>
<path fill="none" stroke="#005295" stroke-width="0.5" stroke-miterlimit="10" d="M-589,242.5H38.334c12,0,12-10.104,20.207-10.104
	S66.748,242.5,78.748,242.5h394.577c12,0,12-12,24-12h9.141c12,0,12,12,24,12h135.093c12,0,12-10.104,20.207-10.104
	c8.208,0,8.208,10.104,20.208,10.104h29.989c12,0,12-10.104,20.207-10.104s8.207,10.104,20.207,10.104h29.032
	c12,0,12-10.953,21.907-10.953s9.907,10.953,21.907,10.953H963.42c12,0,12-10.953,21.906-10.953s9.906,10.953,21.906,10.953H1858"/>
<path fill="none" stroke="#005295" stroke-width="0.5" stroke-miterlimit="10" d="M-589,246.5H38.334c12,0,12-10.104,20.207-10.104
	S66.748,246.5,78.748,246.5h394.577c12,0,12-12,24-12h12.067c12,0,12,12,24,12h132.166c12,0,12-10.104,20.207-10.104
	c8.208,0,8.208,10.104,20.208,10.104h29.989c12,0,12-10.104,20.207-10.104s8.207,10.104,20.207,10.104h31.736
	c12,0,12-10.953,21.906-10.953c9.907,0,9.907,10.953,21.907,10.953h108.789c12,0,12-10.953,21.907-10.953
	c9.906,0,9.906,10.953,21.906,10.953H1858"/>
<path fill="none" stroke="#005295" stroke-width="0.5" stroke-miterlimit="10" d="M-589,250.5H38.334c12,0,12-10.104,20.207-10.104
	S66.748,250.5,78.748,250.5h394.577c12,0,12-10.104,20.208-10.104c8.207,0,8.207,4.664,9.328,4.664
	c1.119,0,1.119-5.645,11.289-5.645c10.168,0,10.168,11.084,22.169,11.084h129.239c12,0,12-10.104,20.207-10.104
	c8.208,0,8.208,10.104,20.208,10.104h29.989c12,0,12-10.104,20.207-10.104s8.207,10.104,20.207,10.104h34.439
	c12,0,12-10.953,21.906-10.953c9.907,0,9.907,10.953,21.907,10.953h103.383c12,0,12-10.953,21.906-10.953
	c9.907,0,9.907,10.953,21.907,10.953H1858"/>
<path fill="none" stroke="#005295" stroke-width="0.5" stroke-miterlimit="10" d="M-589,254.5H38.334c12,0,12-10.104,20.207-10.104
	S66.748,254.5,78.748,254.5h394.577c12,0,12-10.104,20.208-10.104c8.207,0,8.207,5.395,10.791,5.395
	c2.583,0,2.583-6.375,12.752-6.375c10.17,0,10.17,11.084,22.169,11.084h126.313c12,0,12-10.104,20.207-10.104
	c8.208,0,8.208,10.104,20.208,10.104h29.989c12,0,12-10.104,20.207-10.104s8.207,10.104,20.207,10.104h37.143
	c12,0,12-10.953,21.906-10.953c9.907,0,9.907,10.953,21.907,10.953h97.977c12,0,12-10.953,21.906-10.953s9.906,10.953,21.906,10.953
	H1858"/>
<path fill="none" stroke="#005295" stroke-width="0.5" stroke-miterlimit="10" d="M-589,258.5H38.334c12,0,12-10.104,20.207-10.104
	S66.748,258.5,78.748,258.5h394.577c12,0,12-10.104,20.208-10.104c8.207,0,8.207,6.127,12.254,6.127s4.047-7.107,14.216-7.107
	s10.169,11.084,22.169,11.084h123.387c12,0,12-10.104,20.207-10.104c8.208,0,8.208,10.104,20.208,10.104h29.989
	c12,0,12-10.104,20.207-10.104s8.207,10.104,20.207,10.104h39.846c12,0,12-10.953,21.907-10.953c9.906,0,9.906,10.953,21.906,10.953
	h92.57c12,0,12-10.953,21.906-10.953s9.906,10.953,21.906,10.953H1858"/>
<path fill="none" stroke="#005295" stroke-width="0.5" stroke-miterlimit="10" d="M-589,262.5H38.334c12,0,12-10.104,20.207-10.104
	S66.748,262.5,78.748,262.5h394.577c12,0,12-10.104,20.208-10.104c8.207,0,8.207,6.858,13.717,6.858s5.51-7.839,15.68-7.839
	c10.169,0,10.169,11.084,22.169,11.084h120.46c12,0,12-10.104,20.207-10.104c8.208,0,8.208,10.104,20.208,10.104h29.989
	c12,0,12-10.104,20.207-10.104s8.207,10.104,20.207,10.104h42.549c12,0,12-10.953,21.907-10.953c9.906,0,9.906,10.953,21.906,10.953
	h87.164c12,0,12-10.953,21.906-10.953s9.906,10.953,21.906,10.953H1858"/>
<path fill="none" stroke="#005295" stroke-width="0.5" stroke-miterlimit="10" d="M-589,266.5H38.334c12,0,12-10.104,20.207-10.104
	S66.748,266.5,78.748,266.5h394.577c12,0,12-10.104,20.208-10.104c8.207,0,8.207,7.59,15.181,7.59s6.974-8.57,17.142-8.57
	c10.17,0,10.17,11.084,22.17,11.084h117.533c12,0,12-10.104,20.207-10.104c8.208,0,8.208,10.104,20.208,10.104h29.989
	c12,0,12-10.104,20.207-10.104s8.207,10.104,20.207,10.104h45.252c12,0,12-10.953,21.907-10.953s9.907,10.953,21.907,10.953H947.2
	c12,0,12-10.953,21.906-10.953s9.906,10.953,21.906,10.953H1858"/>
<path fill="none" stroke="#005295" stroke-width="0.5" stroke-miterlimit="10" d="M-589,270.5H38.334c12,0,12-10.104,20.207-10.104
	S66.748,270.5,78.748,270.5h394.577c12,0,12-10.104,20.208-10.104c8.207,0,8.207,8.322,16.645,8.322
	c8.436,0,8.436-9.303,18.604-9.303s10.169,11.084,22.169,11.084h114.607c12,0,12-10.104,20.207-10.104
	c8.208,0,8.208,10.104,20.208,10.104h29.989c12,0,12-10.104,20.207-10.104s8.207,10.104,20.207,10.104h47.956
	c12,0,12-10.953,21.906-10.953c9.907,0,9.907,10.953,21.907,10.953h76.351c12,0,12-10.953,21.906-10.953S976.31,270.5,988.31,270.5
	H1858"/>
<path fill="none" stroke="#005295" stroke-width="0.5" stroke-miterlimit="10" d="M-589,274.5H38.334c12,0,12-10.104,20.207-10.104
	S66.748,274.5,78.748,274.5h394.577c12,0,12-10.104,20.208-10.104c8.207,0,8.207,9.053,18.107,9.053
	c9.899,0,9.899-10.033,20.068-10.033s10.169,11.084,22.169,11.084h111.681c12,0,12-10.104,20.207-10.104
	c8.208,0,8.208,10.104,20.208,10.104h29.989c12,0,12-10.104,20.207-10.104s8.207,10.104,20.207,10.104h50.659
	c12,0,12-10.953,21.906-10.953c9.907,0,9.907,10.953,21.907,10.953h70.943c12,0,12-10.953,21.906-10.953s9.906,10.953,21.906,10.953
	H1858"/>
<path fill="none" stroke="#005295" stroke-width="0.5" stroke-miterlimit="10" d="M-589,278.5H38.334c12,0,12-10.104,20.207-10.104
	S66.748,278.5,78.748,278.5h394.577c12,0,12-10.104,20.208-10.104c8.207,0,8.207,9.785,19.57,9.785s11.363-10.766,21.532-10.766
	s10.169,11.084,22.169,11.084h108.754c12,0,12-10.104,20.207-10.104c8.208,0,8.208,10.104,20.208,10.104h29.989
	c12,0,12-10.104,20.207-10.104s8.207,10.104,20.207,10.104h53.362c12,0,12-10.953,21.906-10.953c9.907,0,9.907,10.953,21.907,10.953
	h65.537c12,0,12-10.953,21.906-10.953s9.906,10.953,21.906,10.953H1858"/>
<path fill="none" stroke="#005295" stroke-width="0.5" stroke-miterlimit="10" d="M-589,282.5H38.334c12,0,12-10.104,20.207-10.104
	S66.748,282.5,78.748,282.5h394.577c12,0,12-10.104,20.208-10.104c8.207,0,8.207,10.104,20.207,10.104h1.652
	c12,0,12-11.084,22.17-11.084c10.169,0,10.169,11.084,22.169,11.084h105.827c12,0,12-10.104,20.207-10.104
	c8.208,0,8.208,10.104,20.208,10.104h29.989c12,0,12-10.104,20.207-10.104s8.207,10.104,20.207,10.104h56.065
	c12,0,12-10.953,21.907-10.953c9.906,0,9.906,10.953,21.906,10.953h60.131c12,0,12-10.953,21.906-10.953s9.906,10.953,21.906,10.953
	H1858"/>
<path fill="none" stroke="#005295" stroke-width="0.5" stroke-miterlimit="10" d="M-589,286.5H38.334c12,0,12-10.104,20.207-10.104
	S66.748,286.5,78.748,286.5h394.577c12,0,12-10.104,20.208-10.104c8.207,0,8.207,10.104,20.207,10.104h4.579
	c12,0,12-11.084,22.169-11.084c10.17,0,10.17,11.084,22.17,11.084h102.9c12,0,12-10.104,20.207-10.104
	c8.208,0,8.208,10.104,20.208,10.104h29.989c12,0,12-10.104,20.207-10.104s8.207,10.104,20.207,10.104h58.769
	c12,0,12-10.953,21.907-10.953c9.906,0,9.906,10.953,21.906,10.953h54.725c12,0,12-10.953,21.906-10.953s9.906,10.953,21.906,10.953
	H1858"/>
<path fill="none" stroke="#005295" stroke-width="0.5" stroke-miterlimit="10" d="M-589,290.5H38.334c12,0,12-10.104,20.207-10.104
	S66.748,290.5,78.748,290.5h394.577c12,0,12-10.104,20.208-10.104c8.207,0,8.207,10.104,20.207,10.104h7.506
	c12,0,12-11.084,22.169-11.084s10.169,11.084,22.169,11.084h99.975c12,0,12-10.104,20.207-10.104
	c8.208,0,8.208,10.104,20.208,10.104h29.989c12,0,12-10.104,20.207-10.104s8.207,10.104,20.207,10.104h61.472
	c12,0,12-10.953,21.907-10.953c9.906,0,9.906,10.953,21.906,10.953h49.318c12,0,12-10.953,21.906-10.953s9.906,10.953,21.906,10.953
	H1858"/>
<path fill="none" stroke="#005295" stroke-width="0.5" stroke-miterlimit="10" d="M-589,294.5H38.334c12,0,12-10.104,20.207-10.104
	S66.748,294.5,78.748,294.5h394.577c12,0,12-10.104,20.208-10.104c8.207,0,8.207,10.104,20.207,10.104h10.433
	c12,0,12-11.084,22.169-11.084s10.169,11.084,22.169,11.084h97.048c12,0,12-10.104,20.207-10.104
	c8.208,0,8.208,10.104,20.208,10.104h29.989c12,0,12-10.104,20.207-10.104s8.207,10.104,20.207,10.104h64.176
	c12,0,12-10.953,21.906-10.953c9.907,0,9.907,10.953,21.907,10.953h43.911c12,0,12-10.953,21.906-10.953
	c9.905,0,9.905,10.953,21.905,10.953H1858"/>
<path fill="none" stroke="#005295" stroke-width="0.5" stroke-miterlimit="10" d="M-589,298.5H38.334c12,0,12-10.104,20.207-10.104
	S66.748,298.5,78.748,298.5h394.577c12,0,12-10.104,20.208-10.104c8.207,0,8.207,10.104,20.207,10.104H527.1
	c12,0,12-11.084,22.169-11.084s10.169,11.084,22.169,11.084h94.121c12,0,12-10.104,20.207-10.104
	c8.208,0,8.208,10.104,20.208,10.104h29.989c12,0,12-10.104,20.207-10.104s8.207,10.104,20.207,10.104h66.879
	c12,0,12-10.953,21.906-10.953c9.907,0,9.907,10.953,21.907,10.953h38.505c12,0,12-10.953,21.905-10.953
	c9.906,0,9.906,10.953,21.906,10.953H1858"/>
<path fill="none" stroke="#005295" stroke-width="0.5" stroke-miterlimit="10" d="M-589,302.5H38.334c12,0,12-10.104,20.207-10.104
	S66.748,302.5,78.748,302.5h394.577c12,0,12-10.104,20.208-10.104c8.207,0,8.207,10.104,20.207,10.104h16.285
	c12,0,12-11.084,22.17-11.084c10.169,0,10.169,11.084,22.169,11.084h91.194c12,0,12-10.104,20.207-10.104
	c8.208,0,8.208,10.104,20.208,10.104h29.989c12,0,12-10.104,20.207-10.104s8.207,10.104,20.207,10.104h69.582
	c12,0,12-10.953,21.906-10.953c9.907,0,9.907,10.953,21.907,10.953h33.099c12,0,12-10.953,21.905-10.953
	c9.906,0,9.906,10.953,21.906,10.953H1858"/>
<path fill="none" stroke="#005295" stroke-width="0.5" stroke-miterlimit="10" d="M-589,306.5H38.334c12,0,12-10.104,20.207-10.104
	S66.748,306.5,78.748,306.5h394.577c12,0,12-10.104,20.208-10.104c8.207,0,8.207,10.104,20.207,10.104h19.212
	c12,0,12-11.084,22.169-11.084S565.29,306.5,577.29,306.5h88.269c12,0,12-10.104,20.207-10.104c8.208,0,8.208,10.104,20.208,10.104
	h29.989c12,0,12-10.104,20.207-10.104s8.207,10.104,20.207,10.104h72.285c12,0,12-10.953,21.907-10.953
	c9.906,0,9.906,10.953,21.906,10.953h27.691c12,0,12-10.953,21.906-10.953s9.906,10.953,21.906,10.953H1858"/>
<path fill="none" stroke="#005295" stroke-width="0.5" stroke-miterlimit="10" d="M-589,310.5H38.334c12,0,12-10.104,20.207-10.104
	S66.748,310.5,78.748,310.5h169.33c12,0,12-10.104,20.207-10.104s8.207,10.104,20.207,10.104h184.833c12,0,12-10.104,20.208-10.104
	c8.207,0,8.207,10.104,20.207,10.104h22.139c12,0,12-11.084,22.169-11.084s10.169,11.084,22.169,11.084h85.342
	c12,0,12-10.104,20.207-10.104c8.208,0,8.208,10.104,20.208,10.104h29.989c12,0,12-10.104,20.207-10.104s8.207,10.104,20.207,10.104
	h74.988c12,0,12-10.953,21.907-10.953c9.906,0,9.906,10.953,21.906,10.953h22.285c12,0,12-10.953,21.906-10.953
	s9.906,10.953,21.906,10.953H1858"/>
<path fill="none" stroke="#005295" stroke-width="0.5" stroke-miterlimit="10" d="M-589,314.5H38.334c12,0,12-10.104,20.207-10.104
	S66.748,314.5,78.748,314.5h169.33c12,0,12-10.104,20.207-10.104s8.207,10.104,20.207,10.104h184.833c12,0,12-10.104,20.208-10.104
	c8.207,0,8.207,10.104,20.207,10.104h25.065c12,0,12-11.084,22.169-11.084s10.169,11.084,22.169,11.084h82.415
	c12,0,12-10.104,20.207-10.104c8.208,0,8.208,10.104,20.208,10.104h29.989c12,0,12-10.104,20.207-10.104s8.207,10.104,20.207,10.104
	h77.691c12,0,12-10.953,21.907-10.953c9.906,0,9.906,10.953,21.906,10.953h16.879c12,0,12-10.953,21.906-10.953
	c9.905,0,9.905,10.953,21.905,10.953H1858"/>
<path fill="none" stroke="#005295" stroke-width="0.5" stroke-miterlimit="10" d="M-589,318.5H38.334c12,0,12-10.104,20.207-10.104
	S66.748,318.5,78.748,318.5h169.33c12,0,12-10.104,20.207-10.104s8.207,10.104,20.207,10.104h184.833c12,0,12-10.104,20.208-10.104
	c8.207,0,8.207,10.104,20.207,10.104h27.991c12,0,12-11.084,22.17-11.084c10.169,0,10.169,11.084,22.169,11.084h79.488
	c12,0,12-10.104,20.207-10.104c8.208,0,8.208,10.104,20.208,10.104h29.989c12,0,12-10.104,20.207-10.104s8.207,10.104,20.207,10.104
	h80.396c12,0,12-10.953,21.906-10.953s9.906,10.953,21.906,10.953h11.473c12,0,12-10.953,21.906-10.953
	c9.905,0,9.905,10.953,21.905,10.953H1858"/>
<path fill="none" stroke="#005295" stroke-width="0.5" stroke-miterlimit="10" d="M-589,322.5H38.334c12,0,12-10.104,20.207-10.104
	S66.748,322.5,78.748,322.5h169.33c12,0,12-10.104,20.207-10.104s8.207,10.104,20.207,10.104h184.833c12,0,12-10.104,20.208-10.104
	c8.207,0,8.207,10.104,20.207,10.104h30.918c12,0,12-11.084,22.169-11.084c10.17,0,10.17,11.084,22.17,11.084h76.562
	c12,0,12-10.104,20.207-10.104c8.208,0,8.208,10.104,20.208,10.104h29.989c12,0,12-10.104,20.207-10.104s8.207,10.104,20.207,10.104
	h83.099c12,0,12-9.404,18.808-9.404s6.808,9.404,18.808,9.404h18.51c12,0,12-9.392,18.782-9.392c6.783,0,6.783,9.392,18.783,9.392
	H1858"/>
<path fill="none" stroke="#005295" stroke-width="0.5" stroke-miterlimit="10" d="M-589,326.5H38.334c12,0,12-10.104,20.207-10.104
	S66.748,326.5,78.748,326.5h169.33c12,0,12-10.104,20.207-10.104s8.207,10.104,20.207,10.104h184.833c12,0,12-10.104,20.208-10.104
	c8.207,0,8.207,10.104,20.207,10.104h33.845c12,0,12-11.084,22.169-11.084s10.169,11.084,22.169,11.084h73.636
	c12,0,12-10.104,20.207-10.104c8.208,0,8.208,10.104,20.208,10.104h29.989c12,0,12-10.104,20.207-10.104s8.207,10.104,20.207,10.104
	h85.802c12,0,12-7.248,14.497-7.248c2.496,0,2.496,7.248,14.496,7.248h30.348c12,0,12-7.236,14.472-7.236s2.472,7.236,14.472,7.236
	H1858"/>
<path fill="none" stroke="#005295" stroke-width="0.5" stroke-miterlimit="10" d="M-589,330.5H38.334c12,0,12-10.104,20.207-10.104
	S66.748,330.5,78.748,330.5h169.33c12,0,12-10.104,20.207-10.104s8.207,10.104,20.207,10.104h184.833c12,0,12-10.104,20.208-10.104
	c8.207,0,8.207,10.104,20.207,10.104h36.771c12,0,12-11.084,22.169-11.084S582.85,330.5,594.85,330.5h70.709
	c12,0,12-10.104,20.207-10.104c8.208,0,8.208,10.104,20.208,10.104h29.989c12,0,12-10.104,20.207-10.104s8.207,10.104,20.207,10.104
	H1858"/>
<path fill="none" stroke="#005295" stroke-width="0.5" stroke-miterlimit="10" d="M-589,334.5H38.334c12,0,12-10.104,20.207-10.104
	S66.748,334.5,78.748,334.5h169.33c12,0,12-10.104,20.207-10.104s8.207,10.104,20.207,10.104h184.833c12,0,12-10.104,20.208-10.104
	c8.207,0,8.207,10.104,20.207,10.104h39.698c12,0,12-11.084,22.169-11.084s10.169,11.084,22.169,11.084h67.782
	c12,0,12-10.104,20.207-10.104c8.208,0,8.208,10.104,20.208,10.104h29.989c12,0,12-10.104,20.207-10.104s8.207,10.104,20.207,10.104
	H1858"/>
<path fill="none" stroke="#005295" stroke-width="0.5" stroke-miterlimit="10" d="M-589,338.5H38.334c12,0,12-10.104,20.207-10.104
	S66.748,338.5,78.748,338.5h169.33c12,0,12-10.104,20.207-10.104s8.207,10.104,20.207,10.104h184.833c12,0,12-10.104,20.208-10.104
	c8.207,0,8.207,10.104,20.207,10.104h42.624c12,0,12-11.084,22.169-11.084c10.17,0,10.17,11.084,22.17,11.084h64.855
	c12,0,12-10.104,20.207-10.104c8.208,0,8.208,10.104,20.208,10.104h29.989c12,0,12-10.104,20.207-10.104s8.207,10.104,20.207,10.104
	H1858"/>
<path fill="none" stroke="#005295" stroke-width="0.5" stroke-miterlimit="10" d="M-589,342.5H38.334c12,0,12-10.104,20.207-10.104
	S66.748,342.5,78.748,342.5h169.33c12,0,12-10.104,20.207-10.104s8.207,10.104,20.207,10.104h184.833c12,0,12-10.104,20.208-10.104
	c8.207,0,8.207,10.104,20.207,10.104h45.551c12,0,12-11.084,22.169-11.084s10.169,11.084,22.169,11.084h61.93
	c12,0,12-10.104,20.207-10.104c8.208,0,8.208,10.104,20.208,10.104h29.989c12,0,12-10.104,20.207-10.104s8.207,10.104,20.207,10.104
	H1858"/>
<path fill="none" stroke="#005295" stroke-width="0.5" stroke-miterlimit="10" d="M-589,346.5H38.334c12,0,12-10.104,20.207-10.104
	S66.748,346.5,78.748,346.5h169.33c12,0,12-10.104,20.207-10.104s8.207,10.104,20.207,10.104h184.833c12,0,12-10.104,20.208-10.104
	c8.207,0,8.207,10.104,20.207,10.104h48.478c12,0,12-11.084,22.169-11.084s10.169,11.084,22.169,11.084h59.003
	c12,0,12-10.104,20.207-10.104c8.208,0,8.208,10.104,20.208,10.104h29.989c12,0,12-10.104,20.207-10.104s8.207,10.104,20.207,10.104
	H1858"/>
<path fill="none" stroke="#005295" stroke-width="0.5" stroke-miterlimit="10" d="M-589,350.5H38.334c12,0,12-12,24-12h130.115
	c12,0,12,12,24,12h31.629c12,0,12-12,24-12h142.883c12,0,12,12,24,12h34.364c12,0,12-10.104,20.208-10.104
	c8.207,0,8.207,10.104,20.207,10.104h51.404c12,0,12-11.084,22.169-11.084s10.169,11.084,22.169,11.084h56.076
	c12,0,12-10.104,20.207-10.104c8.208,0,8.208,10.104,20.208,10.104h29.989c12,0,12-10.104,20.207-10.104s8.207,10.104,20.207,10.104
	H1858"/>
<path fill="none" stroke="#005295" stroke-width="0.5" stroke-miterlimit="10" d="M-589,354.5H38.334c12,0,12-12,24-12h130.115
	c12,0,12,12,24,12h31.629c12,0,12-12,24-12h142.883c12,0,12,12,24,12h34.364c12,0,12-10.104,20.208-10.104
	c8.207,0,8.207,10.104,20.207,10.104h54.33c12,0,12-11.084,22.17-11.084c10.169,0,10.169,11.084,22.169,11.084h53.149
	c12,0,12-10.104,20.207-10.104c8.208,0,8.208,10.104,20.208,10.104h29.989c12,0,12-10.104,20.207-10.104s8.207,10.104,20.207,10.104
	H1858"/>
<path fill="none" stroke="#005295" stroke-width="0.5" stroke-miterlimit="10" d="M-589,358.5H38.334c12,0,12-12,24-12h130.115
	c12,0,12,12,24,12h31.629c12,0,12-12,24-12h142.883c12,0,12,12,24,12h34.364c12,0,12-10.104,20.208-10.104
	c8.207,0,8.207,10.104,20.207,10.104h57.257c12,0,12-11.084,22.169-11.084c10.17,0,10.17,11.084,22.17,11.084h50.223
	c12,0,12-10.104,20.207-10.104c8.208,0,8.208,10.104,20.208,10.104h29.989c12,0,12-10.104,20.207-10.104s8.207,10.104,20.207,10.104
	H1858"/>
<path fill="none" stroke="#005295" stroke-width="0.5" stroke-miterlimit="10" d="M-589,362.5H38.334c12,0,12-12,24-12h130.115
	c12,0,12,12,24,12h31.629c12,0,12-12,24-12h142.883c12,0,12,12,24,12h34.364c12,0,12-10.104,20.208-10.104
	c8.207,0,8.207,10.104,20.207,10.104h60.184c12,0,12-11.084,22.169-11.084s10.169,11.084,22.169,11.084h47.297
	c12,0,12-10.104,20.207-10.104c8.208,0,8.208,10.104,20.208,10.104h29.989c12,0,12-10.104,20.207-10.104s8.207,10.104,20.207,10.104
	H1858"/>
<path fill="none" stroke="#005295" stroke-width="0.5" stroke-miterlimit="10" d="M-589,366.5H38.334c12,0,12-10.104,20.207-10.104
	S66.748,366.5,78.748,366.5h169.33c12,0,12-10.104,20.207-10.104s8.207,10.104,20.207,10.104h184.833c12,0,12-10.104,20.208-10.104
	c8.207,0,8.207,10.104,20.207,10.104h63.11c12,0,12-11.084,22.169-11.084s10.169,11.084,22.169,11.084h44.37
	c12,0,12-10.104,20.207-10.104c8.208,0,8.208,10.104,20.208,10.104h29.989c12,0,12-10.104,20.207-10.104s8.207,10.104,20.207,10.104
	H1858"/>
<path fill="none" stroke="#005295" stroke-width="0.5" stroke-miterlimit="10" d="M-589,370.5H38.334c12,0,12-10.104,20.207-10.104
	S66.748,370.5,78.748,370.5h169.33c12,0,12-10.104,20.207-10.104s8.207,10.104,20.207,10.104h184.833c12,0,12-10.104,20.208-10.104
	c8.207,0,8.207,10.104,20.207,10.104h66.037c12,0,12-11.085,22.169-11.085s10.169,11.085,22.169,11.085h41.443
	c12,0,12-10.104,20.207-10.104c8.208,0,8.208,10.104,20.208,10.104h29.989c12,0,12-10.104,20.207-10.104s8.207,10.104,20.207,10.104
	H1858"/>
<path fill="none" stroke="#005295" stroke-width="0.5" stroke-miterlimit="10" d="M-589,374.5H38.334c12,0,12-10.104,20.207-10.104
	S66.748,374.5,78.748,374.5h169.33c12,0,12-10.104,20.207-10.104s8.207,10.104,20.207,10.104h184.833c12,0,12-10.104,20.208-10.104
	c8.207,0,8.207,10.104,20.207,10.104h68.963c12,0,12-11.085,22.17-11.085c10.169,0,10.169,11.085,22.169,11.085h38.517
	c12,0,12-10.104,20.207-10.104c8.208,0,8.208,10.104,20.208,10.104h29.989c12,0,12-10.104,20.207-10.104s8.207,10.104,20.207,10.104
	H1858"/>
<path fill="none" stroke="#005295" stroke-width="0.5" stroke-miterlimit="10" d="M-589,378.5H38.334c12,0,12-10.104,20.207-10.104
	S66.748,378.5,78.748,378.5h169.33c12,0,12-10.104,20.207-10.104s8.207,10.104,20.207,10.104h184.833c12,0,12-10.104,20.208-10.104
	c8.207,0,8.207,10.104,20.207,10.104h71.89c12,0,12-11.085,22.169-11.085s10.169,11.085,22.169,11.085h35.591
	c12,0,12-10.104,20.207-10.104c8.208,0,8.208,10.104,20.208,10.104h29.989c12,0,12-10.104,20.207-10.104s8.207,10.104,20.207,10.104
	H1858"/>
<path fill="none" stroke="#005295" stroke-width="0.5" stroke-miterlimit="10" d="M-589,382.5H38.334c12,0,12-10.104,20.207-10.104
	S66.748,382.5,78.748,382.5h169.33c12,0,12-10.104,20.207-10.104s8.207,10.104,20.207,10.104h184.833c12,0,12-10.104,20.208-10.104
	c8.207,0,8.207,10.104,20.207,10.104h74.816c12,0,12-11.085,22.169-11.085s10.169,11.085,22.169,11.085h32.664
	c12,0,12-10.104,20.207-10.104c8.208,0,8.208,10.104,20.208,10.104h29.989c12,0,12-10.104,20.207-10.104s8.207,10.104,20.207,10.104
	H1858"/>
<path fill="none" stroke="#005295" stroke-width="0.5" stroke-miterlimit="10" d="M-589,386.5H38.334c12,0,12-10.104,20.207-10.104
	S66.748,386.5,78.748,386.5h169.33c12,0,12-10.104,20.207-10.104s8.207,10.104,20.207,10.104h184.833c12,0,12-10.104,20.208-10.104
	c8.207,0,8.207,10.104,20.207,10.104h77.743c12,0,12-11.085,22.169-11.085s10.169,11.085,22.169,11.085h29.737
	c12,0,12-10.104,20.207-10.104c8.208,0,8.208,10.104,20.208,10.104h29.989c12,0,12-10.104,20.207-10.104s8.207,10.104,20.207,10.104
	H1858"/>
<path fill="none" stroke="#005295" stroke-width="0.5" stroke-miterlimit="10" d="M-589,390.5H38.334c12,0,12-10.104,20.207-10.104
	S66.748,390.5,78.748,390.5h169.33c12,0,12-10.104,20.207-10.104s8.207,10.104,20.207,10.104h184.833c12,0,12-10.104,20.208-10.104
	c8.207,0,8.207,10.104,20.207,10.104h80.67c12,0,12-11.085,22.169-11.085s10.169,11.085,22.169,11.085h26.811
	c12,0,12-10.104,20.207-10.104c8.208,0,8.208,10.104,20.208,10.104h29.989c12,0,12-10.104,20.207-10.104s8.207,10.104,20.207,10.104
	H1858"/>
<path fill="none" stroke="#005295" stroke-width="0.5" stroke-miterlimit="10" d="M-589,394.5H38.334c12,0,12-10.104,20.207-10.104
	S66.748,394.5,78.748,394.5h169.33c12,0,12-10.104,20.207-10.104s8.207,10.104,20.207,10.104h184.833c12,0,12-10.104,20.208-10.104
	c8.207,0,8.207,10.104,20.207,10.104h83.596c12,0,12-11.085,22.169-11.085c10.17,0,10.17,11.085,22.17,11.085h23.884
	c12,0,12-10.104,20.207-10.104c8.208,0,8.208,10.104,20.208,10.104h29.989c12,0,12-10.104,20.207-10.104s8.207,10.104,20.207,10.104
	H1858"/>
<path fill="none" stroke="#005295" stroke-width="0.5" stroke-miterlimit="10" d="M-589,398.5H38.334c12,0,12-10.104,20.207-10.104
	S66.748,398.5,78.748,398.5h169.33c12,0,12-10.104,20.207-10.104s8.207,10.104,20.207,10.104h184.833c12,0,12-10.104,20.208-10.104
	c8.207,0,8.207,10.104,20.207,10.104h86.522c12,0,12-11.085,22.169-11.085s10.169,11.085,22.169,11.085h20.958
	c12,0,12-10.104,20.207-10.104c8.208,0,8.208,10.104,20.208,10.104h29.989c12,0,12-10.104,20.207-10.104s8.207,10.104,20.207,10.104
	H1858"/>
<path fill="none" stroke="#005295" stroke-width="0.5" stroke-miterlimit="10" d="M-589,402.5H38.334c12,0,12-10.104,20.207-10.104
	S66.748,402.5,78.748,402.5h169.33c12,0,12-10.104,20.207-10.104s8.207,10.104,20.207,10.104h184.833c12,0,12-10.104,20.208-10.104
	c8.207,0,8.207,10.104,20.207,10.104h89.449c12,0,12-11.085,22.169-11.085s10.169,11.085,22.169,11.085h18.031
	c12,0,12-10.104,20.207-10.104c8.208,0,8.208,10.104,20.208,10.104h29.989c12,0,12-10.104,20.207-10.104s8.207,10.104,20.207,10.104
	H1858"/>
<path fill="none" stroke="#005295" stroke-width="0.5" stroke-miterlimit="10" d="M-589,406.5H38.334c12,0,12-10.104,20.207-10.104
	S66.748,406.5,78.748,406.5h169.33c12,0,12-10.104,20.207-10.104s8.207,10.104,20.207,10.104h184.833c12,0,12-10.104,20.208-10.104
	c8.207,0,8.207,10.104,20.207,10.104h92.376c12,0,12-11.085,22.169-11.085s10.169,11.085,22.169,11.085h15.104
	c12,0,12-10.104,20.207-10.104c8.208,0,8.208,10.104,20.208,10.104h29.989c12,0,12-10.104,20.207-10.104s8.207,10.104,20.207,10.104
	h76.21c12,0,12-7.421,14.843-7.421c2.842,0,2.842,7.421,14.842,7.421h48.147c12,0,12-7.409,14.819-7.409
	c2.818,0,2.818,7.409,14.818,7.409H1858"/>
<path fill="none" stroke="#005295" stroke-width="0.5" stroke-miterlimit="10" d="M-589,410.5H38.334c12,0,12-10.104,20.207-10.104
	S66.748,410.5,78.748,410.5h394.577c12,0,12-10.104,20.208-10.104c8.207,0,8.207,10.104,20.207,10.104h95.302
	c12,0,12-11.085,22.17-11.085c10.169,0,10.169,11.085,22.169,11.085h12.178c12,0,12-10.104,20.207-10.104
	c8.208,0,8.208,10.104,20.208,10.104h29.989c12,0,12-10.104,20.207-10.104s8.207,10.104,20.207,10.104h73.506
	c12,0,12-9.577,19.154-9.577c7.153,0,7.153,9.577,19.153,9.577h36.311c12,0,12-9.564,19.13-9.564s7.13,9.564,19.13,9.564H1858"/>
<path fill="none" stroke="#005295" stroke-width="0.5" stroke-miterlimit="10" d="M-589,414.5H38.334c12,0,12-10.104,20.207-10.104
	S66.748,414.5,78.748,414.5h394.577c12,0,12-10.104,20.208-10.104c8.207,0,8.207,10.104,20.207,10.104h98.229
	c12,0,12-11.085,22.169-11.085s10.169,11.085,22.169,11.085h9.252c12,0,12-10.104,20.207-10.104c8.208,0,8.208,10.104,20.208,10.104
	h29.989c12,0,12-10.104,20.207-10.104s8.207,10.104,20.207,10.104h70.803c12,0,12-10.953,21.906-10.953
	c9.905,0,9.905,10.953,21.905,10.953h30.66c12,0,12-10.953,21.906-10.953s9.906,10.953,21.906,10.953H1858"/>
<path fill="none" stroke="#005295" stroke-width="0.5" stroke-miterlimit="10" d="M-589,418.5H38.334c12,0,12-10.104,20.207-10.104
	S66.748,418.5,78.748,418.5h394.577c12,0,12-10.104,20.208-10.104c8.207,0,8.207,10.104,20.207,10.104h101.155
	c12,0,12-11.085,22.169-11.085s10.169,11.085,22.169,11.085h6.325c12,0,12-10.104,20.207-10.104c8.208,0,8.208,10.104,20.208,10.104
	h29.989c12,0,12-10.104,20.207-10.104s8.207,10.104,20.207,10.104h68.1c12,0,12-10.953,21.906-10.953
	c9.905,0,9.905,10.953,21.905,10.953h36.067c12,0,12-10.953,21.905-10.953c9.906,0,9.906,10.953,21.906,10.953H1858"/>
<path fill="none" stroke="#005295" stroke-width="0.5" stroke-miterlimit="10" d="M-589,422.5H38.334c12,0,12-10.104,20.207-10.104
	S66.748,422.5,78.748,422.5h394.577c12,0,12-10.104,20.208-10.104c8.207,0,8.207,10.104,20.207,10.104h104.082
	c12,0,12-11.085,22.169-11.085S650.16,422.5,662.16,422.5h3.398c12,0,12-10.104,20.207-10.104c8.208,0,8.208,10.104,20.208,10.104
	h29.989c12,0,12-10.104,20.207-10.104s8.207,10.104,20.207,10.104h65.396c12,0,12-10.953,21.905-10.953
	c9.906,0,9.906,10.953,21.906,10.953h41.474c12,0,12-10.953,21.905-10.953c9.906,0,9.906,10.953,21.906,10.953H1858"/>
<path fill="none" stroke="#005295" stroke-width="0.5" stroke-miterlimit="10" d="M-589,426.5H38.334c12,0,12-10.104,20.207-10.104
	S66.748,426.5,78.748,426.5h394.577c12,0,12-10.104,20.208-10.104c8.207,0,8.207,10.104,20.207,10.104h107.009
	c12,0,12-11.085,22.169-11.085s10.169,11.085,22.169,11.085h0.472c12,0,12-10.104,20.207-10.104c8.208,0,8.208,10.104,20.208,10.104
	h29.989c12,0,12-10.104,20.207-10.104s8.207,10.104,20.207,10.104h62.693c12,0,12-10.953,21.905-10.953s9.905,10.953,21.905,10.953
	h46.881c12,0,12-10.953,21.906-10.953c9.905,0,9.905,10.953,21.905,10.953H1858"/>
<path fill="none" stroke="#005295" stroke-width="0.5" stroke-miterlimit="10" d="M-589,430.5H38.334c12,0,12-10.104,20.207-10.104
	S66.748,430.5,78.748,430.5h394.577c12,0,12-10.104,20.208-10.104c8.207,0,8.207,10.104,20.207,10.104h109.935
	c12,0,12-11.085,22.169-11.085c10.17,0,10.17,10.472,20.942,10.472s10.772-9.49,18.979-9.49c8.208,0,8.208,10.104,20.208,10.104
	h29.989c12,0,12-10.104,20.207-10.104s8.207,10.104,20.207,10.104h59.99c12,0,12-10.953,21.905-10.953s9.905,10.953,21.905,10.953
	h52.287c12,0,12-10.953,21.906-10.953c9.905,0,9.905,10.953,21.905,10.953H1858"/>
<path fill="none" stroke="#005295" stroke-width="0.5" stroke-miterlimit="10" d="M-589,434.5H38.334c12,0,12-10.104,20.207-10.104
	S66.748,434.5,78.748,434.5h394.577c12,0,12-10.104,20.208-10.104c8.207,0,8.207,10.104,20.207,10.104h112.861
	c12,0,12-11.085,22.169-11.085s10.169,9.739,19.479,9.739s9.31-8.758,17.517-8.758c8.208,0,8.208,10.104,20.208,10.104h29.989
	c12,0,12-10.104,20.207-10.104s8.207,10.104,20.207,10.104h57.286c12,0,12-10.953,21.906-10.953c9.905,0,9.905,10.953,21.905,10.953
	h57.693c12,0,12-10.953,21.906-10.953c9.905,0,9.905,10.953,21.905,10.953H1858"/>
<path fill="none" stroke="#005295" stroke-width="0.5" stroke-miterlimit="10" d="M-589,438.5H38.334c12,0,12-10.104,20.207-10.104
	S66.748,438.5,78.748,438.5h394.577c12,0,12-10.104,20.208-10.104c8.207,0,8.207,10.104,20.207,10.104h115.788
	c12,0,12-11.085,22.169-11.085s10.169,9.008,18.016,9.008c7.846,0,7.846-8.026,16.053-8.026c8.208,0,8.208,10.104,20.208,10.104
	h29.989c12,0,12-10.104,20.207-10.104s8.207,10.104,20.207,10.104h54.583c12,0,12-10.953,21.905-10.953
	c9.906,0,9.906,10.953,21.906,10.953h63.101c12,0,12-10.953,21.905-10.953s9.905,10.953,21.905,10.953H1858"/>
<path fill="none" stroke="#005295" stroke-width="0.5" stroke-miterlimit="10" d="M-589,442.5H38.334c12,0,12-10.104,20.207-10.104
	S66.748,442.5,78.748,442.5h394.577c12,0,12-10.104,20.208-10.104c8.207,0,8.207,10.104,20.207,10.104h118.715
	c12,0,12-11.085,22.169-11.085s10.169,8.276,16.552,8.276s6.383-7.295,14.59-7.295c8.208,0,8.208,10.104,20.208,10.104h29.989
	c12,0,12-10.104,20.207-10.104s8.207,10.104,20.207,10.104h51.88c12,0,12-10.953,21.905-10.953s9.905,10.953,21.905,10.953h68.508
	c12,0,12-10.953,21.905-10.953s9.905,10.953,21.905,10.953H1858"/>
<path fill="none" stroke="#005295" stroke-width="0.5" stroke-miterlimit="10" d="M-589,446.5H38.334c12,0,12-10.104,20.207-10.104
	S66.748,446.5,78.748,446.5h394.577c12,0,12-10.104,20.208-10.104c8.207,0,8.207,10.104,20.207,10.104h121.641
	c12,0,12-11.085,22.17-11.085c10.169,0,10.169,7.545,15.088,7.545c4.92,0,4.92-6.563,13.127-6.563
	c8.208,0,8.208,10.104,20.208,10.104h29.989c12,0,12-10.104,20.207-10.104s8.207,10.104,20.207,10.104h49.177
	c12,0,12-10.953,21.905-10.953s9.905,10.953,21.905,10.953h73.914c12,0,12-10.953,21.905-10.953c9.906,0,9.906,10.953,21.906,10.953
	H1858"/>
<path fill="none" stroke="#005295" stroke-width="0.5" stroke-miterlimit="10" d="M-589,450.5H38.334c12,0,12-10.104,20.207-10.104
	S66.748,450.5,78.748,450.5h394.577c12,0,12-10.104,20.208-10.104c8.207,0,8.207,10.104,20.207,10.104h124.567
	c12,0,12-11.085,22.169-11.085s10.169,6.813,13.626,6.813c3.456,0,3.456-5.832,11.663-5.832c8.208,0,8.208,10.104,20.208,10.104
	h29.989c12,0,12-10.104,20.207-10.104s8.207,10.104,20.207,10.104h46.474c12,0,12-10.953,21.905-10.953s9.905,10.953,21.905,10.953
	h79.32c12,0,12-10.953,21.905-10.953c9.906,0,9.906,10.953,21.906,10.953H1858"/>
<path fill="none" stroke="#005295" stroke-width="0.5" stroke-miterlimit="10" d="M-589,454.5H38.334c12,0,12-10.104,20.207-10.104
	S66.748,454.5,78.748,454.5h394.577c12,0,12-10.104,20.208-10.104c8.207,0,8.207,10.104,20.207,10.104h127.494
	c12,0,12-11.085,22.169-11.085s10.169,6.081,12.162,6.081s1.993-5.1,10.2-5.1c8.208,0,8.208,10.104,20.208,10.104h29.989
	c12,0,12-10.104,20.207-10.104s8.207,10.104,20.207,10.104h43.771c12,0,12-10.953,21.905-10.953s9.905,10.953,21.905,10.953h84.727
	c12,0,12-10.953,21.906-10.953c9.905,0,9.905,10.953,21.905,10.953H1858"/>
<path fill="none" stroke="#005295" stroke-width="0.5" stroke-miterlimit="10" d="M-589,458.5H38.334c12,0,12-10.104,20.207-10.104
	S66.748,458.5,78.748,458.5h394.577c12,0,12-10.104,20.208-10.104c8.207,0,8.207,10.104,20.207,10.104h130.421
	c12,0,12-11.085,22.169-11.085s10.169,5.35,10.699,5.35c0.529,0,0.529-4.368,8.736-4.368c8.208,0,8.208,10.104,20.208,10.104h29.989
	c12,0,12-10.104,20.207-10.104s8.207,10.104,20.207,10.104h41.066c12,0,12-10.953,21.905-10.953s9.905,10.953,21.905,10.953h90.135
	c12,0,12-10.953,21.905-10.953s9.905,10.953,21.905,10.953H1858"/>
<path fill="none" stroke="#005295" stroke-width="0.5" stroke-miterlimit="10" d="M-589,462.5H38.334c12,0,12-10.104,20.207-10.104
	S66.748,462.5,78.748,462.5h394.577c12,0,12-10.104,20.208-10.104c8.207,0,8.207,10.104,20.207,10.104h133.348c12,0,12-12,24-12
	h10.886c12,0,12,12,24,12h29.989c12,0,12-10.104,20.207-10.104s8.207,10.104,20.207,10.104h38.363c12,0,12-10.953,21.905-10.953
	s9.905,10.953,21.905,10.953h95.541c12,0,12-10.953,21.905-10.953s9.905,10.953,21.905,10.953H1858"/>
<path fill="none" stroke="#005295" stroke-width="0.5" stroke-miterlimit="10" d="M-589,466.5H38.334c12,0,12-10.104,20.207-10.104
	S66.748,466.5,78.748,466.5h394.577c12,0,12-10.104,20.208-10.104c8.207,0,8.207,10.104,20.207,10.104h136.273c12,0,12-12,24-12
	h7.96c12,0,12,12,24,12h29.989c12,0,12-10.104,20.207-10.104s8.207,10.104,20.207,10.104h35.66c12,0,12-10.952,21.905-10.952
	s9.905,10.952,21.905,10.952h100.947c12,0,12-10.953,21.905-10.953s9.905,10.953,21.905,10.953H1858"/>
<path fill="none" stroke="#005295" stroke-width="0.5" stroke-miterlimit="10" d="M-589,470.5H38.334c12,0,12-10.104,20.207-10.104
	S66.748,470.5,78.748,470.5h394.577c12,0,12-10.104,20.208-10.104c8.207,0,8.207,10.104,20.207,10.104h139.2c12,0,12-12,24-12h5.033
	c12,0,12,12,24,12h29.989c12,0,12-10.104,20.207-10.104s8.207,10.104,20.207,10.104h32.957c12,0,12-10.952,21.905-10.952
	s9.905,10.952,21.905,10.952h106.354c12,0,12-10.952,21.905-10.952s9.905,10.952,21.905,10.952H1858"/>
<path fill="none" stroke="#005295" stroke-width="0.5" stroke-miterlimit="10" d="M-589,474.5H38.334c12,0,12-10.104,20.207-10.104
	S66.748,474.5,78.748,474.5h169.33c12,0,12-12,24-12h157.475c12,0,12,12,24,12h19.772c12,0,12-10.104,20.208-10.104
	c8.207,0,8.207,10.104,20.207,10.104h142.127c12,0,12-12,24-12h2.106c12,0,12,12,24,12h29.989c12,0,12-10.104,20.207-10.104
	s8.207,10.104,20.207,10.104h30.254c12,0,12-10.952,21.905-10.952s9.905,10.952,21.905,10.952h111.76c12,0,12-10.952,21.905-10.952
	s9.905,10.952,21.905,10.952H1858"/>
<path fill="none" stroke="#005295" stroke-width="0.5" stroke-miterlimit="10" d="M-589,478.5H38.334c12,0,12-10.104,20.207-10.104
	S66.748,478.5,78.748,478.5h169.33c12,0,12-12,24-12h157.475c12,0,12,12,24,12h19.772c12,0,12-10.104,20.208-10.104
	c8.207,0,8.207,10.104,20.207,10.104h145.054c12,0,12-11.795,23.59-11.795s11.59,11.795,23.59,11.795h29.989
	c12,0,12-10.104,20.207-10.104s8.207,10.104,20.207,10.104h27.551c12,0,12-10.952,21.904-10.952c9.905,0,9.905,10.952,21.905,10.952
	h117.168c12,0,12-10.952,21.904-10.952c9.905,0,9.905,10.952,21.905,10.952H1858"/>
<path fill="none" stroke="#005295" stroke-width="0.5" stroke-miterlimit="10" d="M-589,482.5H38.334c12,0,12-10.104,20.207-10.104
	S66.748,482.5,78.748,482.5h169.33c12,0,12-12,24-12h157.475c12,0,12,12,24,12h19.772c12,0,12-10.104,20.208-10.104
	c8.207,0,8.207,10.104,20.207,10.104h147.98c12,0,12-11.063,22.126-11.063c10.127,0,10.127,11.063,22.127,11.063h29.989
	c12,0,12-10.104,20.207-10.104s8.207,10.104,20.207,10.104h26.675c12,0,12-10.496,20.991-10.496s8.991,10.496,20.991,10.496h122.574
	c12,0,12-10.509,21.017-10.509s9.017,10.509,21.017,10.509H1858"/>
<path fill="none" stroke="#005295" stroke-width="0.5" stroke-miterlimit="10" d="M-589,486.5H38.334c12,0,12-10.104,20.207-10.104
	S66.748,486.5,78.748,486.5h169.33c12,0,12-12,24-12h157.475c12,0,12,12,24,12h19.772c12,0,12-10.104,20.208-10.104
	c8.207,0,8.207,10.104,20.207,10.104h150.906c12,0,12-10.332,20.664-10.332c8.663,0,8.663,10.332,20.663,10.332h29.989
	c12,0,12-10.104,20.207-10.104s8.207,10.104,20.207,10.104h32.594c12,0,12-8.34,16.681-8.34c4.68,0,4.68,8.34,16.68,8.34h127.98
	c12,0,12-8.353,16.705-8.353s4.705,8.353,16.705,8.353H1858"/>
<path fill="none" stroke="#005295" stroke-width="0.5" stroke-miterlimit="10" d="M-589,490.5H814.891c12,0,12-6.185,12.368-6.185
	c0.369,0,0.369,6.185,12.369,6.185h133.387c12,0,12-6.197,12.394-6.197c0.395,0,0.395,6.197,12.395,6.197H1858"/>
<line fill="none" stroke="#005295" stroke-width="0.5" stroke-miterlimit="10" x1="-587" y1="494.5" x2="1858" y2="494.5"/>
<line fill="none" stroke="#005295" stroke-width="0.5" stroke-miterlimit="10" x1="-587" y1="498.5" x2="1858" y2="498.5"/>
<line fill="none" stroke="#005295" stroke-width="0.5" stroke-miterlimit="10" x1="-587" y1="502.5" x2="1858" y2="502.5"/>
<line fill="none" stroke="#005295" stroke-width="0.5" stroke-miterlimit="10" x1="-587" y1="506.5" x2="1858" y2="506.5"/>
<line fill="none" stroke="#005295" stroke-width="0.5" stroke-miterlimit="10" x1="-587" y1="510.5" x2="1858" y2="510.5"/>
<line fill="none" stroke="#005295" stroke-width="0.5" stroke-miterlimit="10" x1="-587" y1="514.5" x2="1858" y2="514.5"/>
<line fill="none" stroke="#005295" stroke-width="0.5" stroke-miterlimit="10" x1="-587" y1="518.5" x2="1858" y2="518.5"/>
<line fill="none" stroke="#005295" stroke-width="0.5" stroke-miterlimit="10" x1="-587" y1="522.5" x2="1858" y2="522.5"/>
<line fill="none" stroke="#005295" stroke-width="0.5" stroke-miterlimit="10" x1="-587" y1="526.5" x2="1858" y2="526.5"/>
<line fill="none" stroke="#005295" stroke-width="0.5" stroke-miterlimit="10" x1="-587" y1="530.5" x2="1858" y2="530.5"/>
<line fill="none" stroke="#005295" stroke-width="0.5" stroke-miterlimit="10" x1="-587" y1="534.5" x2="1858" y2="534.5"/>
<line fill="none" stroke="#005295" stroke-width="0.5" stroke-miterlimit="10" x1="-587" y1="538.5" x2="1858" y2="538.5"/>
<line fill="none" stroke="#005295" stroke-width="0.5" stroke-miterlimit="10" x1="-587" y1="542.5" x2="1858" y2="542.5"/>
<line fill="none" stroke="#005295" stroke-width="0.5" stroke-miterlimit="10" x1="-587" y1="546.5" x2="1858" y2="546.5"/>
<line fill="none" stroke="#005295" stroke-width="0.5" stroke-miterlimit="10" x1="-587" y1="550.5" x2="1858" y2="550.5"/>
<line fill="none" stroke="#005295" stroke-width="0.5" stroke-miterlimit="10" x1="-587" y1="554.5" x2="1858" y2="554.5"/>
<line fill="none" stroke="#005295" stroke-width="0.5" stroke-miterlimit="10" x1="-587" y1="558.5" x2="1858" y2="558.5"/>
<line fill="none" stroke="#005295" stroke-width="0.5" stroke-miterlimit="10" x1="-587" y1="562.5" x2="1858" y2="562.5"/>
<line fill="none" stroke="#005295" stroke-width="0.5" stroke-miterlimit="10" x1="-587" y1="566.5" x2="1858" y2="566.5"/>
<line fill="none" stroke="#005295" stroke-width="0.5" stroke-miterlimit="10" x1="-587" y1="570.5" x2="1858" y2="570.5"/>
<line fill="none" stroke="#005295" stroke-width="0.5" stroke-miterlimit="10" x1="-587" y1="574.5" x2="1858" y2="574.5"/>
<line fill="none" stroke="#005295" stroke-width="0.5" stroke-miterlimit="10" x1="-587" y1="578.5" x2="1858" y2="578.5"/>
<line fill="none" stroke="#005295" stroke-width="0.5" stroke-miterlimit="10" x1="-587" y1="582.5" x2="1858" y2="582.5"/>
</svg>
